ply
format ascii 1.0
element splat 100
property float x
property float y
property float z
property float r_0
property float r_1
property float r_2
property float r_3
property float s_0
property float s_1
property float s_2
property float r
property float g
property float b
property float a
end_header
-2.88970208168029785 4.2178502082824707 -0.0791294127702713013 -0.223055183887481689 -0.296101242303848267 0.0990509018301963806 0.923449695110321045 0.486072123050689697 0.0761931762099266052 0.142326101660728455 0.368316352367401123 0.725885093212127686 0.347994893789291382 1
-2.42546677589416504 4.40141868591308594 2.06569314002990723 -0.130807057023048401 0.290222704410552979 -0.0602269954979419708 0.946061849594116211 0.36894574761390686 0.0995806083083152771 0.0459510348737239838 0.458523988723754883 0.490418165922164917 0.6526297926902771 1
0.126162499189376831 -4.81677579879760742 -0.5628243088722229 0.0249150916934013367 0.100824080407619476 0.0786576643586158752 0.991477012634277344 0.451334983110427856 0.24365369975566864 0.126692920923233032 0.858564019203186035 0.592201292514801025 0.426119536161422729 1
2.31707358360290527 -4.94964218139648438 4.49734115600585938 0.00565633410587906837 0.0586472079157829285 0.0460873544216156006 0.997198283672332764 0.464086353778839111 0.175839811563491821 0.094247475266456604 0.737527668476104736 0.807932853698730469 0.745660126209259033 1
3.50699257850646973 0.450926274061203003 4.32942581176757812 -0.0175068527460098267 0.0784168094396591187 0.00496686529368162155 0.99675452709197998 0.472461044788360596 0.323488593101501465 0.109037801623344421 0.579897642135620117 0.685954391956329346 0.848788201808929443 1
3.88716673851013184 -3.60938501358032227 -2.93429422378540039 -0.0856238678097724915 0.205267444252967834 -0.10068095475435257 0.969740748405456543 0.570881485939025879 0.233714237809181213 0.19982464611530304 0.221856087446212769 0.778799891471862793 0.49168279767036438 1
-2.56406354904174805 -1.89276373386383057 -0.535117864608764648 -0.0744732990860939026 -0.0156281087547540665 0.996209383010864258 0.0421468093991279602 0.0734979584813117981 0.305452048778533936 0.5278511643409729 0.694193482398986816 0.700271487236022949 0.0417793132364749908 1
-1.24432766437530518 4.20754241943359375 -3.91058468818664551 -0.0133514953777194023 -0.0791073814034461975 0.0445695966482162476 0.995779752731323242 0.418233096599578857 0.223721817135810852 0.0724659264087677002 0.394156575202941895 0.287596970796585083 0.67991936206817627 1
-3.13077783584594727 1.26904964447021484 -4.45390176773071289 -0.293605804443359375 0.95048987865447998 -0.0843420848250389099 0.0570180751383304596 0.492168575525283813 0.301094949245452881 0.186984941363334656 0.5171242356300354 0.0120968641713261604 0.084646664559841156 1
-0.337883174419403076 -4.58599615097045898 -2.61160850524902344 -0.148541495203971863 -0.0547039248049259186 0.0656504631042480469 0.985207021236419678 0.604462802410125732 0.192091509699821472 0.338082313537597656 0.83788609504699707 0.699619054794311523 0.102164909243583679 1
-0.297333776950836182 0.713485121726989746 3.32318639755249023 -0.0493477471172809601 -0.108647041022777557 0.0357683822512626648 0.992210268974304199 0.681260645389556885 0.227769657969474792 0.129283368587493896 0.169917523860931396 0.827132642269134521 0.678223907947540283 1
-0.00802050158381462097 -2.14758086204528809 -1.08490431308746338 0.252055138349533081 0.142299085855484009 0.949557781219482422 0.120661243796348572 0.239638075232505798 0.480549335479736328 0.456626474857330322 0.988797664642333984 0.746307015419006348 0.134565949440002441 1
-2.65216398239135742 1.93957090377807617 -1.26803696155548096 0.271984368562698364 -0.174115747213363647 -0.173130974173545837 0.930448234081268311 0.265796691179275513 0.122900590300559998 0.0749370604753494263 0.110122926533222198 0.254874497652053833 0.551326215267181396 1
-4.88442039489746094 4.86553144454956055 3.25248241424560547 0.360283493995666504 -0.153577491641044617 -0.200407654047012329 0.898023664951324463 0.475398480892181396 0.166769295930862427 0.19958101212978363 0.0853801444172859192 0.116762541234493256 0.817150771617889404 1
2.59224104881286621 -4.34948539733886719 0.200196221470832825 -0.111288152635097504 0.0551004856824874878 0.989056527614593506 0.079662129282951355 0.579093813896179199 0.386802017688751221 0.191596224904060364 0.586909174919128418 0.445367127656936646 0.865697681903839111 1
4.88762521743774414 -4.01422739028930664 4.25101232528686523 0.156061172485351562 -0.119401037693023682 0.96631324291229248 -0.166213661432266235 0.549991488456726074 0.270220965147018433 0.18864189088344574 0.421789020299911499 0.309576660394668579 0.272295355796813965 1
2.20319199562072754 2.01114964485168457 1.41009819507598877 -0.298134267330169678 -0.167717233300209045 0.0919582545757293701 0.935163378715515137 0.607482373714447021 0.391881048679351807 0.146121501922607422 0.969887018203735352 0.219684109091758728 0.916794121265411377 1
-1.54567945003509521 3.65703892707824707 4.67366170883178711 -0.252447187900543213 0.156601771712303162 -0.145601570606231689 0.943687736988067627 0.395920544862747192 0.118703506886959076 0.189066275954246521 0.802056372165679932 0.106472112238407135 0.78304678201675415 1
0.215536385774612427 -2.89659476280212402 -3.01692938804626465 0.0302591025829315186 -0.0011670086532831192 0.999469280242919922 -0.0120091810822486877 0.257707327604293823 0.50502777099609375 0.437218159437179565 0.97992408275604248 0.929198265075683594 0.28007236123085022 1
-1.61753487586975098 3.92244768142700195 -4.11800813674926758 -0.0359976589679718018 -0.0437625795602798462 0.997703790664672852 0.0370965227484703064 0.583807528018951416 0.387139737606048584 0.32526811957359314 0.264478683471679688 0.275424271821975708 0.118344217538833618 1
2.44927573204040527 1.39311838150024414 -3.48685336112976074 -0.0953534692525863647 -0.20229145884513855 0.974153220653533936 0.0318028852343559265 0.574667274951934814 0.0630819648504257202 0.355896919965744019 0.0890187397599220276 0.415880024433135986 0.20299278199672699 1
3.29320549964904785 0.823215782642364502 1.95946586132049561 -0.0132757341489195824 0.036853395402431488 0.999231219291687012 -0.00158318178728222847 0.355321705341339111 0.294889450073242188 0.113067023456096649 0.419523924589157104 0.0612732879817485809 0.864132523536682129 1
2.8390805721282959 -4.72011566162109375 2.88476872444152832 0.105542451143264771 0.0243671555072069168 0.990561366081237793 0.0839951038360595703 0.125066265463829041 0.215426445007324219 0.322326898574829102 0.910515844821929932 0.711331963539123535 0.0724783986806869507 1
-1.06161594390869141 2.74085164070129395 0.0603183843195438385 -0.133707985281944275 0.0151260709390044212 0.990832865238189697 0.0119817284867167473 0.436567991971969604 0.0859754383563995361 0.129424333572387695 0.561049818992614746 0.652403175830841064 0.785890877246856689 1
-4.20229291915893555 3.75625991821289062 -3.37572050094604492 0.753626704216003418 0.337831765413284302 0.28158104419708252 0.488496273756027222 0.485169023275375366 0.256459265947341919 0.157005041837692261 0.474464833736419678 0.696940422058105469 0.218365490436553955 1
-1.5266110897064209 -3.98664999008178711 -1.73219203948974609 -0.261770904064178467 -0.122515857219696045 0.938339054584503174 0.189698874950408936 0.183773040771484375 0.301844567060470581 0.37146151065826416 0.590109884738922119 0.164352625608444214 0.419114887714385986 1
-3.01897454261779785 0.152662813663482666 -1.89494645595550537 0.0196039136499166489 0.0101625928655266762 -0.00909957289695739746 0.999714791774749756 0.574930071830749512 0.358383327722549438 0.154911532998085022 0.588744819164276123 0.0962425544857978821 0.159823551774024963 1
1.63003969192504883 -2.55706501007080078 -2.63713812828063965 0.0216416139155626297 0.0804265290498733521 0.00478835403919219971 0.996514081954956055 0.51718437671661377 0.208027586340904236 0.114287152886390686 0.955244481563568115 0.83799976110458374 0.478960573673248291 1
1.73435795307159424 4.00812911987304688 -3.50052022933959961 0.0755893215537071228 -0.138980194926261902 -0.0973822399973869324 0.982592225074768066 0.113402403891086578 0.140964463353157043 0.149241670966148376 0.764286279678344727 0.47362285852432251 0.0207830145955085754 1
-4.76812314987182617 2.14280152320861816 -4.75484228134155273 0.245691448450088501 -0.201052680611610413 0.0787525027990341187 0.944992899894714355 0.381021201610565186 0.189230963587760925 0.0907897725701332092 0.782203793525695801 0.228340670466423035 0.0156455468386411667 1
1.78379178047180176 2.11481857299804688 -4.84300470352172852 0.989706039428710938 -0.140291586518287659 0.0238747429102659225 -0.0151719711720943451 0.50102764368057251 0.134760096669197083 0.286880791187286377 0.50981593132019043 0.457698792219161987 0.149292737245559692 1
0.487424135208129883 2.28686070442199707 -4.45598316192626953 0.274398326873779297 -0.448095500469207764 -0.174478679895401001 0.832750380039215088 0.634844660758972168 0.171704858541488647 0.236131682991981506 0.212603241205215454 0.804885625839233398 0.703847646713256836 1
-1.80414700508117676 1.23433470726013184 -3.11051392555236816 0.005081934854388237 -0.00485986284911632538 0.999965310096740723 0.00446799583733081818 0.647075355052947998 0.283872902393341064 0.0191971752792596817 0.468569934368133545 0.875765144824981689 0.298104643821716309 1
-1.11934161186218262 1.67128503322601318 -1.04982531070709229 0.0742166116833686829 0.0539841242134571075 0.00799563061445951462 0.995747804641723633 0.0464855469763278961 0.421531051397323608 0.497878432273864746 0.953702449798583984 0.947278499603271484 0.235087141394615173 1
3.78155183792114258 -2.72612953186035156 -4.73255586624145508 0.232031598687171936 -0.0681244507431983948 -0.073747485876083374 0.967513144016265869 0.401810377836227417 0.262256115674972534 0.125085994601249695 0.603433728218078613 0.835655093193054199 0.114207550883293152 1
1.72266483306884766 4.14042425155639648 3.8690333366394043 0.0283846613019704819 -0.000945423205848783255 0.999554276466369629 -0.00920045096427202225 0.105562761425971985 0.437447160482406616 0.528044044971466064 0.267791956663131714 0.685366690158843994 0.0440127179026603699 1
-1.32309305667877197 -3.38562393188476562 -0.192529991269111633 0.322847932577133179 0.125795617699623108 0.90520024299621582 0.246083647012710571 0.177022412419319153 0.227726981043815613 0.376330047845840454 0.60461580753326416 0.0910211578011512756 0.432625830173492432 1
4.3688817024230957 -0.812480509281158447 -3.32005882263183594 0.100423619151115417 0.00893534161150455475 0.993821203708648682 0.046418115496635437 0.133624479174613953 0.363899320363998413 0.543663382530212402 0.978194952011108398 0.38098028302192688 0.17888912558555603 1
-3.42555952072143555 2.2146906852722168 3.64515519142150879 -0.0057455538772046566 -0.000222851100261323154 0.999980032444000244 0.00261457962915301323 0.124080471694469452 0.348740696907043457 0.309640347957611084 0.788895308971405029 0.746010065078735352 0.365493118762969971 1
-0.868470072746276855 4.71856784820556641 2.32840538024902344 0.996497988700866699 -0.0784631669521331787 0.0285257399082183838 -0.00464812014251947403 0.449844270944595337 0.189919561147689819 0.0776653885841369629 0.53939509391784668 0.911222100257873535 0.30785214900970459 1
-4.56006574630737305 -4.89834928512573242 2.35066413879394531 -0.143778696656227112 -0.43919527530670166 0.137796670198440552 0.87604069709777832 0.276297152042388916 0.437023550271987915 0.598127245903015137 0.0750466138124465942 0.619113624095916748 0.663968443870544434 1
3.62747597694396973 -3.63402056694030762 -1.48706161975860596 -0.0346995443105697632 -0.000805502291768789291 0.999312996864318848 0.01299329474568367 0.191032871603965759 0.508151412010192871 0.471098214387893677 0.839329361915588379 0.734061181545257568 0.186578869819641113 1
-2.70925760269165039 3.67315030097961426 1.69334232807159424 0.0120355766266584396 0.0562055483460426331 0.0321028716862201691 0.997830390930175781 0.501563608646392822 0.206621617078781128 0.361406177282333374 0.171304509043693542 0.807016730308532715 0.262840867042541504 1
2.02173614501953125 2.06329870223999023 1.04363429546356201 0.157146155834197998 -0.109370797872543335 0.980229854583740234 0.0499258972704410553 0.510606527328491211 0.151672646403312683 0.0792362242937088013 0.499781221151351929 0.737480998039245605 0.60762178897857666 1
-2.77722001075744629 -4.81539297103881836 -1.6033397912979126 0.179712861776351929 -0.0728069543838500977 0.0532705076038837433 0.979573726654052734 0.312790662050247192 0.226835951209068298 0.0719339549541473389 0.98972088098526001 0.972283065319061279 0.346748083829879761 1
-0.978019952774047852 -1.56106328964233398 0.304582536220550537 0.212022468447685242 0.85563194751739502 -0.166893556714057922 -0.441686570644378662 0.0616701655089855194 0.268274843692779541 0.469653099775314331 0.173206880688667297 0.940466821193695068 0.947857022285461426 1
-4.31866788864135742 -2.2880096435546875 0.946648061275482178 -0.198575332760810852 -0.29973873496055603 0.238461822271347046 0.902142167091369629 0.5499839186668396 0.326245218515396118 0.259104162454605103 0.748756706714630127 0.963973760604858398 0.108836360275745392 1
2.47096109390258789 2.13695430755615234 -0.630910277366638184 -0.0178861431777477264 -0.020124334841966629 0.999632060527801514 -0.00329850055277347565 0.484809219837188721 0.300718158483505249 0.130683422088623047 0.889109969139099121 0.059205714613199234 0.317250996828079224 1
-3.92825531959533691 -0.752230525016784668 4.65118503570556641 0.145362570881843567 0.397337645292282104 0.270619779825210571 0.864729702472686768 0.408600479364395142 0.156209647655487061 0.0966898947954177856 0.79815065860748291 0.140926599502563477 0.865769743919372559 1
0.410876572132110596 4.27513313293457031 4.00854825973510742 -0.165754452347755432 -0.0361460670828819275 0.984912216663360596 -0.0341598130762577057 0.43585735559463501 0.299390643835067749 0.136513352394104004 0.525837123394012451 0.177998393774032593 0.244343787431716919 1
-0.0387787222862243652 -3.74786949157714844 4.98642444610595703 -0.00213248422369360924 -0.0411979146301746368 0.999146819114685059 -0.00193999498151242733 0.384803056716918945 0.103749632835388184 0.224678203463554382 0.510938704013824463 0.58649134635925293 0.949684083461761475 1
3.21503782272338867 3.95608353614807129 -2.77699851989746094 0.999071180820465088 -0.0382850915193557739 0.0194813460111618042 -0.0033920572604984045 0.433843404054641724 0.211893528699874878 0.334165096282958984 0.994361996650695801 0.759424507617950439 0.850656867027282715 1
3.00876402854919434 -1.11980819702148438 -2.1065976619720459 0.0751107409596443176 0.101974986493587494 0.991844832897186279 0.0142579572275280952 0.470175206661224365 0.362029969692230225 0.267370551824569702 0.827517569065093994 0.503374278545379639 0.666249871253967285 1
0.259773105382919312 1.02490925788879395 0.470486909151077271 0.0428390614688396454 0.189082995057106018 0.0563066713511943817 0.979408979415893555 0.533599913120269775 0.323824614286422729 0.268251597881317139 0.683708727359771729 0.894345879554748535 0.954830527305603027 1
1.36204671859741211 -0.494150757789611816 1.51085972785949707 0.353633254766464233 -0.082423187792301178 0.923838913440704346 -0.121126174926757812 0.441057801246643066 0.310697019100189209 0.180041953921318054 0.0837512239813804626 0.631499409675598145 0.613207459449768066 1
2.60191917419433594 -4.41390037536621094 -0.508044004440307617 0.190618440508842468 -0.0351524464786052704 -0.0272632688283920288 0.9806557297706604 0.464760243892669678 0.244374394416809082 0.167730644345283508 0.983754992485046387 0.755518913269042969 0.371213465929031372 1
2.66439104080200195 0.846992969512939453 1.01850354671478271 0.0625096261501312256 -0.191672593355178833 -0.241079017519950867 0.949334025382995605 0.518287003040313721 0.342341691255569458 0.114548727869987488 0.341552227735519409 0.711836755275726318 0.0589911043643951416 1
-0.5037689208984375 -2.63521003723144531 4.06009531021118164 0.00723623577505350113 0.000439252267824485898 0.999973535537719727 -0.000561784603632986546 0.0952311530709266663 0.335388600826263428 0.490290731191635132 0.55040895938873291 0.911237001419067383 0.523484408855438232 1
3.97438359260559082 -0.567006886005401611 -4.14539194107055664 -0.224440664052963257 0.197923332452774048 0.951958239078521729 0.0650246217846870422 0.46006658673286438 0.21719023585319519 0.0992129296064376831 0.279785424470901489 0.77002030611038208 0.31397441029548645 1
-1.51970303058624268 -2.65179800987243652 4.21071481704711914 -0.172374725341796875 -0.245859220623970032 0.107865527272224426 0.947736918926239014 0.592949509620666504 0.162405118346214294 0.251330018043518066 0.361181378364562988 0.963323771953582764 0.571402847766876221 1
2.80058407783508301 -4.17846012115478516 -0.230982646346092224 0.00985918100923299789 -0.131034135818481445 -0.0416989028453826904 0.990451455116271973 0.330862045288085938 0.134601682424545288 0.0579188168048858643 0.818319201469421387 0.807069003582000732 0.0983417406678199768 1
-1.4113163948059082 -4.24369907379150391 -3.16208052635192871 -0.137380495667457581 -0.108743928372859955 0.983949482440948486 -0.0338352508842945099 0.441352576017379761 0.0144104789942502975 0.20395292341709137 0.265833079814910889 0.616152286529541016 0.8919791579246521 1
2.2812657356262207 2.43407320976257324 -0.57375866174697876 -0.00195699767209589481 0.000977242481894791126 0.999997198581695557 0.00087789405370131135 0.568543016910552979 0.182989254593849182 0.153199687600135803 0.713623702526092529 0.822748243808746338 0.111148975789546967 1
-2.11621451377868652 -3.27261948585510254 -0.554455876350402832 0.131280332803726196 -0.0817150995135307312 -0.0321955494582653046 0.987446963787078857 0.320958435535430908 0.177367672324180603 0.233088433742523193 0.618610203266143799 0.457085311412811279 0.222055047750473022 1
3.55710577964782715 1.8894200325012207 2.53089356422424316 0.00517802545800805092 0.00310869631357491016 0.00135568773839622736 0.9999808669090271 0.494298219680786133 0.359302163124084473 0.0755408182740211487 0.61679154634475708 0.0621762983500957489 0.720920383930206299 1
0.886405706405639648 -0.647176444530487061 3.58154845237731934 -0.231205195188522339 -0.118544086813926697 0.956247448921203613 0.134470358490943909 0.340921461582183838 0.454064071178436279 0.5111960768699646 0.980152308940887451 0.325779259204864502 0.0583090782165527344 1
3.30068826675415039 4.16931724548339844 4.15257930755615234 0.0221600960940122604 -0.00872876401990652084 0.999676108360290527 0.00896958913654088974 0.453560471534729004 0.104540489614009857 0.0294321533292531967 0.196232229471206665 0.141043588519096375 0.913251638412475586 1
-3.90143346786499023 -3.01861000061035156 1.86248505115509033 -0.271395593881607056 0.109918035566806793 0.950509130954742432 0.103898122906684875 0.528850674629211426 0.235665604472160339 0.0639000758528709412 0.547682106494903564 0.498520702123641968 0.655740022659301758 1
-2.12585878372192383 -3.77380752563476562 -1.83350157737731934 -0.157956570386886597 -0.126705721020698547 0.961065828800201416 0.188010364770889282 0.372258037328720093 0.202574789524078369 0.10020938515663147 0.274469941854476929 0.51578986644744873 0.836989521980285645 1
3.31099700927734375 0.693273663520812988 -3.1010138988494873 -0.472073823213577271 0.255055516958236694 -0.19955812394618988 0.81992042064666748 0.362740010023117065 0.0643622055649757385 0.184272080659866333 0.0201294291764497757 0.107948876917362213 0.254716932773590088 1
-4.81041145324707031 1.82743692398071289 -0.72232353687286377 -0.081943124532699585 0.0493391528725624084 0.993824541568756104 0.0562475360929965973 0.438057839870452881 0.0911309421062469482 0.0799789130687713623 0.284317731857299805 0.335334330797195435 0.771225035190582275 1
0.488926976919174194 1.04005181789398193 3.42527365684509277 0.0423727110028266907 -0.0295854602009057999 0.998444437980651855 0.0209260433912277222 0.473066508769989014 0.00928475521504878998 0.160189539194107056 0.347461581230163574 0.880068182945251465 0.331265687942504883 1
-3.54622411727905273 -1.45986628532409668 3.42932009696960449 0.141654685139656067 0.0996999889612197876 0.984610855579376221 -0.0231361053884029388 0.372296512126922607 0.252646535634994507 0.108336262404918671 0.631043672561645508 0.655598282814025879 0.616832494735717773 1
-2.75819683074951172 4.4254298210144043 -0.629183709621429443 0.241213276982307434 0.962738096714019775 -0.0545848757028579712 -0.109416700899600983 0.258232951164245605 0.0220400169491767883 0.177958473563194275 0.0982176437973976135 0.40094369649887085 0.36089816689491272 1
4.0950160026550293 1.51741719245910645 2.23997974395751953 0.140141293406486511 -0.0557514727115631104 -0.0423650704324245453 0.987652480602264404 0.58172762393951416 0.0532747693359851837 0.324192583560943604 0.073274172842502594 0.80268174409866333 0.0866717919707298279 1
2.5223543643951416 2.78818726539611816 2.9342048168182373 0.0611418001353740692 -0.115151382982730865 -0.048603355884552002 0.990272462368011475 0.512104988098144531 0.320835530757904053 0.196578815579414368 0.538665711879730225 0.32658308744430542 0.129985541105270386 1
0.477754682302474976 -0.251206785440444946 -2.97401928901672363 0.981910347938537598 0.139748275279998779 0.126311168074607849 0.0191818065941333771 0.477790623903274536 0.167372867465019226 0.282100528478622437 0.352858036756515503 0.687779545783996582 0.715654253959655762 1
-1.66034281253814697 -4.36634731292724609 -0.50945436954498291 0.378904581069946289 0.903547704219818115 -0.160142511129379272 -0.119946695864200592 0.60538637638092041 0.294571548700332642 0.157758578658103943 0.868636429309844971 0.796383202075958252 0.0473573245108127594 1
-2.40851736068725586 1.25875508785247803 -0.23544524610042572 -0.137637197971343994 -0.340015709400177002 0.9273834228515625 0.073521055281162262 0.583786070346832275 0.381383299827575684 0.12605893611907959 0.846831560134887695 0.17410355806350708 0.236937195062637329 1
-4.92074298858642578 2.38697218894958496 -4.24132442474365234 -0.245275810360908508 -0.413882911205291748 0.297549843788146973 0.824624061584472656 0.383419901132583618 0.245166540145874023 0.134358689188957214 0.598495125770568848 0.284707218408584595 0.93640512228012085 1
-1.24954867362976074 -0.634995102882385254 2.21718144416809082 -0.260231971740722656 0.228299707174301147 0.890218615531921387 -0.296090155839920044 0.231708720326423645 0.161373868584632874 0.117721147835254669 0.827025473117828369 0.805845916271209717 0.597999513149261475 1
4.2585597038269043 -0.207542479038238525 1.1762470006942749 -0.123611822724342346 -0.142973676323890686 0.043996766209602356 0.980990767478942871 0.40430113673210144 0.0777712538838386536 0.208021000027656555 0.912097275257110596 0.786345124244689941 0.357753366231918335 1
-0.506883680820465088 4.82706356048583984 -2.75887656211853027 0.00101303844712674618 0.000121330376714468002 0.99999767541885376 -0.00190826784819364548 0.104837290942668915 0.529103636741638184 0.323644071817398071 0.372328966856002808 0.666172683238983154 0.78292393684387207 1
-4.86967277526855469 -1.72979736328125 1.55023610591888428 0.0681129470467567444 -0.028282560408115387 0.0099209323525428772 0.997227311134338379 0.540453791618347168 0.355164289474487305 0.0492573566734790802 0.920916557312011719 0.556795120239257812 0.505284726619720459 1
-2.58004307746887207 3.47152972221374512 -0.456274449825286865 0.0074835573323071003 0.0426119901239871979 0.00969718024134635925 0.99901658296585083 0.340951234102249146 0.160079911351203918 0.205772846937179565 0.657382786273956299 0.856432259082794189 0.216294556856155396 1
-3.36204648017883301 1.22106122970581055 -4.63189029693603516 -0.317670583724975586 0.151823639869689941 0.897643685340881348 -0.26508641242980957 0.0515482313930988312 0.351922512054443359 0.324337571859359741 0.408698707818984985 0.582702040672302246 0.264718383550643921 1
-3.91672730445861816 0.888482034206390381 -3.78449392318725586 -0.122670732438564301 -0.256946831941604614 0.142370268702507019 0.947977304458618164 0.562224209308624268 0.349138706922531128 0.0870274379849433899 0.420505166053771973 0.550072968006134033 0.380109965801239014 1
0.0435415543615818024 -4.32609462738037109 0.565217137336730957 0.284721910953521729 -0.0775720998644828796 -0.103106394410133362 0.949886858463287354 0.591336071491241455 0.327532082796096802 0.0457040965557098389 0.514456272125244141 0.808500587940216064 0.293055564165115356 1
-1.42785155773162842 -0.215163752436637878 2.52313685417175293 -0.076096661388874054 -0.226998999714851379 0.180002570152282715 0.954085886478424072 0.466834008693695068 0.0603886730968952179 0.111283384263515472 0.532082736492156982 0.820864081382751465 0.875988602638244629 1
-3.66178107261657715 1.73622918128967285 0.208662256598472595 -0.0623407289385795593 -0.036322571337223053 0.997201323509216309 -0.0195923689752817154 0.554470598697662354 0.38907971978187561 0.138494208455085754 0.0920683667063713074 0.596205651760101318 0.822407960891723633 1
-2.28949165344238281 0.948300004005432129 -3.01944851875305176 -0.36513856053352356 -0.14349423348903656 0.305307865142822266 0.867681026458740234 0.476951837539672852 0.120442017912864685 0.179043322801589966 0.504092812538146973 0.791822552680969238 0.399923503398895264 1
3.84379792213439941 -4.01267147064208984 -0.416001200675964355 -0.00525834411382675171 0.00928723625838756561 0.999942123889923096 0.00133675802499055862 0.393126010894775391 0.261220067739486694 0.159697443246841431 0.306152194738388062 0.796191573143005371 0.72750324010848999 1
-0.31342017650604248 -3.34029912948608398 1.12460017204284668 0.035235818475484848 -0.00511266989633440971 0.99931490421295166 0.0101016853004693985 0.0338539853692054749 0.397040039300918579 0.290997028350830078 0.916885077953338623 0.772651851177215576 0.940934956073760986 1
-0.278657585382461548 -4.53604364395141602 -3.0626368522644043 -0.00114951946306973696 -0.0144061092287302017 0.00458036409690976143 0.999885082244873047 0.47474101185798645 0.142018631100654602 0.366173446178436279 0.628796398639678955 0.325668931007385254 0.577908992767333984 1
3.75751852989196777 4.84562397003173828 3.22367548942565918 -0.220546498894691467 0.183544725179672241 0.891741156578063965 -0.349954694509506226 0.403065860271453857 0.13606184720993042 0.137994140386581421 0.263666242361068726 0.127245679497718811 0.307688415050506592 1
1.21134388446807861 2.453338623046875 3.38358664512634277 0.392257332801818848 -0.534604012966156006 0.637074291706085205 -0.39302554726600647 0.411412030458450317 0.0953096449375152588 0.226223930716514587 0.583100080490112305 0.293872684240341187 0.30613100528717041 1
-4.52965354919433594 -1.31486701965332031 1.19865167140960693 -0.0267286207526922226 -0.0707884654402732849 0.00706000858917832375 0.997108161449432373 0.550425946712493896 0.366792619228363037 0.156829118728637695 0.0660478100180625916 0.726438164710998535 0.853262662887573242 1
-0.0967166051268577576 1.35593223571777344 -0.924460053443908691 0.0408015735447406769 0.046957060694694519 0.0123171070590615273 0.997987270355224609 0.500724554061889648 0.0704203248023986816 0.17974427342414856 0.591544687747955322 0.882554590702056885 0.0395846925675868988 1
-4.63548135757446289 3.47381305694580078 4.45656728744506836 0.0246197246015071869 -0.00935498066246509552 0.999457776546478271 0.0197624806314706802 0.543004393577575684 0.33847537636756897 0.369691222906112671 0.109894938766956329 0.830190777778625488 0.46670985221862793 1
-0.13584570586681366 1.03121113777160645 -0.487233430147171021 0.0375862643122673035 0.0650323778390884399 0.997161746025085449 0.00514730066061019897 0.469824641942977905 0.339513957500457764 0.152785107493400574 0.787647426128387451 0.118013098835945129 0.0451028719544410706 1
