ply
format ascii 1.0
element splat 100
property float x
property float y
property float z
property float r_0
property float r_1
property float r_2
property float r_3
property float s_0
property float s_1
property float s_2
property float r
property float g
property float b
property float a
end_header
-2.02770853042602539 2.34341073036193848 2.8181612491607666 0.0889057517051696777 0.260024905204772949 0.24801306426525116 0.928963065147399902 0.417418807744979858 0.346817821264266968 0.162803396582603455 0.984385073184967041 0.790243923664093018 0.510579764842987061 1
-3.0634763240814209 2.50316548347473145 -1.4499361515045166 -0.191483348608016968 -0.295846402645111084 0.930894792079925537 0.0961451828479766846 0.631567180156707764 0.255640655755996704 0.279065579175949097 0.410500258207321167 0.231636807322502136 0.909320950508117676 1
0.584882795810699463 0.393604636192321777 -0.489873141050338745 0.344870328903198242 0.137608617544174194 0.882652878761291504 0.288187861442565918 0.236816421151161194 0.332082569599151611 0.417460262775421143 0.105302989482879639 0.116846024990081787 0.509496331214904785 1
-4.61426973342895508 0.770001769065856934 3.06460881233215332 0.0824166610836982727 0.0658657103776931763 0.973862111568450928 0.201151177287101746 0.500744163990020752 0.233037158846855164 0.0238751750439405441 0.698823153972625732 0.914240181446075439 0.623545825481414795 1
-4.60354232788085938 1.44650185108184814 -4.45863819122314453 0.00550253177061676979 -0.0128069063648581505 0.00279129785485565662 0.999898970127105713 0.652597486972808838 0.12260737270116806 0.162072181701660156 0.628565013408660889 0.978829920291900635 0.151732385158538818 1
3.28544831275939941 2.98230791091918945 1.9575650691986084 -0.323635905981063843 0.0731051191687583923 0.940243661403656006 -0.0765327587723731995 0.467397451400756836 0.232740968465805054 0.0577809549868106842 0.834331274032592773 0.939735651016235352 0.460164099931716919 1
-3.67850971221923828 -4.31099987030029297 1.53311014175415039 0.13616865873336792 0.0851096361875534058 0.986625254154205322 -0.0280191972851753235 0.509607195854187012 0.342796444892883301 0.158447757363319397 0.499214410781860352 0.158462822437286377 0.34531402587890625 1
4.83255863189697266 0.302661925554275513 -0.0741335228085517883 0.520137667655944824 -0.217182978987693787 -0.244501188397407532 0.788991451263427734 0.517287790775299072 0.142744317650794983 0.317170560359954834 0.539652824401855469 0.875966250896453857 0.322758734226226807 1
-1.8479989767074585 1.91431248188018799 -4.59467649459838867 -0.142605975270271301 0.0858565643429756165 0.982530474662780762 -0.0832227468490600586 0.3768196702003479 0.246586784720420837 0.0859288498759269714 0.50578773021697998 0.141060605645179749 0.817553043365478516 1
2.85146069526672363 0.123007677495479584 -4.27483415603637695 0.138430327177047729 0.0506504438817501068 0.021649874746799469 0.988839149475097656 0.643239855766296387 0.103024281561374664 0.0611609704792499542 0.246779784560203552 0.511649668216705322 0.307622522115707397 1
-1.01840078830718994 -0.926482558250427246 -3.06893253326416016 0.00985193066298961639 -0.0721060708165168762 -0.0613280236721038818 0.995460987091064453 0.386962860822677612 0.179471760988235474 0.0926624760031700134 0.653245747089385986 0.118599109351634979 0.644542455673217773 1
3.44722342491149902 0.013293752446770668 0.67996448278427124 -0.0405495986342430115 -0.0180109478533267975 0.998559176921844482 0.0301807112991809845 0.461415857076644897 0.151629179716110229 0.080697670578956604 0.193633377552032471 0.205527767539024353 0.962456047534942627 1
1.69900357723236084 -3.28894257545471191 2.81295919418334961 0.0453444793820381165 -0.0244428403675556183 0.998601615428924561 -0.0118845375254750252 0.111492112278938293 0.226288989186286926 0.353661119937896729 0.324907869100570679 0.126221701502799988 0.0655431747436523438 1
3.82499241828918457 1.37264502048492432 1.07507491111755371 0.073057904839515686 -0.203545629978179932 0.975631296634674072 -0.0370852984488010406 0.135571703314781189 0.363621145486831665 0.517705738544464111 0.335510790348052979 0.345029592514038086 0.513877272605895996 1
2.25950765609741211 4.55611848831176758 -2.90075469017028809 -0.0244941636919975281 0.00472105015069246292 -0.00313526671379804611 0.999683916568756104 0.280617773532867432 0.122125513851642609 0.1656293123960495 0.286969304084777832 0.676929831504821777 0.412984579801559448 1
-2.45846366882324219 4.93569278717041016 -0.837189376354217529 0.561317205429077148 0.654464483261108398 -0.348221480846405029 -0.367887228727340698 0.0186342913657426834 0.318921923637390137 0.253740578889846802 0.772122502326965332 0.714130759239196777 0.881021499633789062 1
-4.95559310913085938 -4.45191287994384766 2.18433117866516113 0.0705052316188812256 -0.0729745104908943176 0.993206024169921875 0.0569697730243206024 0.281798034906387329 0.0601526461541652679 0.11760074645280838 0.0764545127749443054 0.849092543125152588 0.111724428832530975 1
-3.38498616218566895 -4.0775141716003418 1.88125646114349365 -0.0347871445119380951 0.178103461861610413 -0.153095483779907227 0.97140657901763916 0.518624305725097656 0.282716184854507446 0.125929459929466248 0.808328807353973389 0.119732759892940521 0.145110130310058594 1
0.224495917558670044 1.00972616672515869 3.73306798934936523 0.167531967163085938 0.0770089328289031982 0.967640161514282227 0.172264888882637024 0.42503628134727478 0.288085728883743286 0.0967223271727561951 0.818823873996734619 0.843437373638153076 0.408062249422073364 1
1.71832478046417236 -2.2075808048248291 -0.400623500347137451 -0.0182422325015068054 0.0317511297762393951 0.999323546886444092 -0.00340145779773592949 0.498429089784622192 0.207956060767173767 0.359236478805541992 0.887380123138427734 0.236671537160873413 0.579842090606689453 1
-0.268606573343276978 0.909796178340911865 1.00238871574401855 0.0633427277207374573 0.182095050811767578 0.231535688042640686 0.953530430793762207 0.402914136648178101 0.29464566707611084 0.20816357433795929 0.346559286117553711 0.990064084529876709 0.291995316743850708 1
0.0350112542510032654 -0.609267473220825195 0.821322739124298096 -0.00186669849790632725 -0.0109412781894207001 0.00684598321095108986 0.999914944171905518 0.508365154266357422 0.153123348951339722 0.290589183568954468 0.525150716304779053 0.950395822525024414 0.252644240856170654 1
-0.990078926086425781 -0.969441115856170654 -0.568545937538146973 0.200407102704048157 -0.0741919949650764465 -0.0650619640946388245 0.974730491638183594 0.62730783224105835 0.0980943590402603149 0.214755147695541382 0.277752697467803955 0.0180020220577716827 0.109349779784679413 1
-1.84627139568328857 -2.71448636054992676 0.239750713109970093 0.157636970281600952 -0.0249327141791582108 0.986548662185668945 0.0353656336665153503 0.228332638740539551 0.148250699043273926 0.0952680408954620361 0.840213596820831299 0.877177774906158447 0.947973906993865967 1
-1.06337010860443115 2.35852360725402832 1.91021621227264404 0.256261825561523438 -0.430793166160583496 -0.218844205141067505 0.837170422077178955 0.621457040309906006 0.203627675771713257 0.0981989502906799316 0.726932406425476074 0.54138946533203125 0.252008438110351562 1
2.17758631706237793 2.34108877182006836 1.91787326335906982 0.152979135513305664 -0.356163144111633301 -0.10068647563457489 0.916300952434539795 0.508115768432617188 0.18682253360748291 0.215161353349685669 0.202870756387710571 0.809039056301116943 0.518165230751037598 1
3.38346481323242188 -1.55639803409576416 -3.85891914367675781 0.0861700326204299927 0.00590042443946003914 0.995758295059204102 0.0317077897489070892 0.119527161121368408 0.426409870386123657 0.283007383346557617 0.657139897346496582 0.160247534513473511 0.209770336747169495 1
-4.48564815521240234 -1.72062551975250244 2.51041030883789062 0.373450785875320435 -0.514576554298400879 0.691981136798858643 -0.341917514801025391 0.431387364864349365 0.132664427161216736 0.220033302903175354 0.96857297420501709 0.458982348442077637 0.701096057891845703 1
-1.29536080360412598 4.96037197113037109 -1.54985737800598145 0.150494635105133057 0.29512825608253479 0.389729887247085571 0.859279513359069824 0.560630261898040771 0.381631344556808472 0.125442057847976685 0.515167415142059326 0.404639333486557007 0.779361307621002197 1
1.60625123977661133 1.59293818473815918 -1.48163425922393799 -0.265467077493667603 0.290594816207885742 0.788627147674560547 -0.472386598587036133 0.446006655693054199 0.244854345917701721 0.066254347562789917 0.933633506298065186 0.439894169569015503 0.935847103595733643 1
-0.351400822401046753 1.32394659519195557 -3.24706149101257324 0.00143029552418738604 0.00821849238127470016 -0.004404453095048666 0.999955475330352783 0.498543024063110352 0.149390757083892822 0.321014434099197388 0.488125741481781006 0.351091206073760986 0.116754844784736633 1
-1.47050201892852783 -3.06237483024597168 -4.12192296981811523 -0.0670943260192871094 0.00756332045421004295 0.997151494026184082 -0.0336162224411964417 0.09557390958070755 0.280517339706420898 0.363700628280639648 0.000383376289391890168 0.652899324893951416 0.862954795360565186 1
0.474677085876464844 0.0361370556056499481 -3.31871461868286133 0.280229091644287109 0.345736563205718994 0.178115129470825195 0.877617716789245605 0.575980305671691895 0.0756886452436447144 0.247360721230506897 0.0894316732883453369 0.337251663208007812 0.770836949348449707 1
-3.74194860458374023 4.77202844619750977 4.7476806640625 0.626243233680725098 0.549754977226257324 0.389418274164199829 0.392354756593704224 0.383408188819885254 0.177846282720565796 0.153476342558860779 0.545402288436889648 0.645012378692626953 0.440135449171066284 1
-2.00513267517089844 2.42165112495422363 1.61339128017425537 -0.00121028500143438578 -0.0213068295270204544 0.0242966022342443466 0.999476969242095947 0.487642765045166016 0.192473530769348145 0.110871553421020508 0.545943260192871094 0.8237648606300354 0.0899203643202781677 1
-4.14107894897460938 -2.70167708396911621 -1.66815972328186035 -0.226983353495597839 0.106925554573535919 -0.15323503315448761 0.955805659294128418 0.495976746082305908 0.26812705397605896 0.330733448266983032 0.502853870391845703 0.881882965564727783 0.538806259632110596 1
4.63516092300415039 2.84301447868347168 -2.20272064208984375 0.0248691029846668243 -0.049770846962928772 0.998422145843505859 -0.00758787663653492928 0.463791191577911377 0.310645192861557007 0.209133580327033997 0.128805860877037048 0.48480716347694397 0.0979875698685646057 1
4.92138910293579102 -1.66916942596435547 -4.93260717391967773 0.202397644519805908 -0.0991112589836120605 0.968798279762268066 -0.103160500526428223 0.101671293377876282 0.440642118453979492 0.480078577995300293 0.770460963249206543 0.971612155437469482 0.0417058728635311127 1
-0.862857341766357422 -0.056391693651676178 1.50851094722747803 -0.193642094731330872 0.0599248893558979034 0.977413356304168701 -0.0597898848354816437 0.0925183817744255066 0.146611511707305908 0.188920259475708008 0.384075731039047241 0.714500904083251953 0.233697935938835144 1
4.18790388107299805 0.482967764139175415 2.06133866310119629 0.0146723315119743347 -0.000608936534263193607 0.9997672438621521 -0.0158055853098630905 0.191386491060256958 0.372946590185165405 0.463683485984802246 0.6646270751953125 0.9443511962890625 0.491415679454803467 1
-3.52791500091552734 -1.8113781213760376 -3.8533780574798584 -0.0324771031737327576 -0.17327725887298584 0.152830824255943298 0.97240060567855835 0.405213654041290283 0.30816948413848877 0.117827810347080231 0.177518546581268311 0.609942615032196045 0.62596428394317627 1
-1.12842190265655518 -4.29394149780273438 -0.154722049832344055 -0.310842037200927734 -0.295017153024673462 0.892661035060882568 -0.139636799693107605 0.43672943115234375 0.148941069841384888 0.206262320280075073 0.641177713871002197 0.672464132308959961 0.891908884048461914 1
-0.23271140456199646 1.97557675838470459 -1.75378859043121338 0.0161890741437673569 -0.0317796207964420319 -0.000827627547550946474 0.999363422393798828 0.542324542999267578 0.376547574996948242 0.103629127144813538 0.182445108890533447 0.81719595193862915 0.805853068828582764 1
-4.44737911224365234 -0.5583992600440979 3.59549236297607422 0.359979510307312012 -0.390818506479263306 -0.275588512420654297 0.801078379154205322 0.5020255446434021 0.375464022159576416 0.337700724601745605 0.295578747987747192 0.49049830436706543 0.9848061203956604 1
-1.6253514289855957 -1.7121574878692627 4.18725204467773438 0.264248460531234741 0.859322011470794678 -0.16305483877658844 -0.406388431787490845 0.10474800318479538 0.167274951934814453 0.275160491466522217 0.325108170509338379 0.609129846096038818 0.929399669170379639 1
1.80141079425811768 -4.60759401321411133 3.08199119567871094 0.106250911951065063 0.138705149292945862 0.146562576293945312 0.973648309707641602 0.0569615662097930908 0.327549755573272705 0.461742699146270752 0.503891170024871826 0.602334856986999512 0.135234013199806213 1
-3.06027889251708984 -0.851282060146331787 1.44480657577514648 0.0123703246936202049 0.0211884956806898117 -0.000974141701590269804 0.999698519706726074 0.489941447973251343 0.416296690702438354 0.141082048416137695 0.146479010581970215 0.167442932724952698 0.44727480411529541 1
0.0577002614736557007 2.53407526016235352 4.0584259033203125 -0.150394290685653687 0.349190294742584229 -0.11507454514503479 0.917717576026916504 0.570869982242584229 0.0328551940619945526 0.281714290380477905 0.926999807357788086 0.00866435933858156204 0.212925732135772705 1
1.87077772617340088 0.247453406453132629 -3.03039026260375977 -0.0837070047855377197 0.15927886962890625 -0.100728876888751984 0.978507578372955322 0.534420311450958252 0.24001583456993103 0.227561578154563904 0.937664151191711426 0.372587740421295166 0.321094274520874023 1
4.8871455192565918 -3.50641059875488281 -4.8464813232421875 -0.196463614702224731 0.0883334726095199585 0.918331146240234375 -0.332065075635910034 0.108961492776870728 0.190168812870979309 0.289578646421432495 0.49579957127571106 0.777059495449066162 0.487957775592803955 1
-0.0943363979458808899 -3.27679252624511719 4.36219263076782227 0.0599608570337295532 0.00603486504405736923 0.997138798236846924 0.0456343181431293488 0.101618006825447083 0.318044036626815796 0.497350633144378662 0.430709570646286011 0.18208959698677063 0.875238299369812012 1
-2.6154789924621582 -3.84477710723876953 2.34301018714904785 -0.0850694328546524048 0.0219712574034929276 -0.0261222738772630692 0.995790183544158936 0.3598366379737854 0.253208756446838379 0.0977250710129737854 0.291270405054092407 0.778151452541351318 0.247399866580963135 1
1.51910841464996338 -2.05020761489868164 -1.40990042686462402 0.0542036518454551697 -0.130203694105148315 -0.0786822885274887085 0.986872851848602295 0.535037815570831299 0.0785915181040763855 0.170605525374412537 0.0536328442394733429 0.990160763263702393 0.147561252117156982 1
-2.37549757957458496 -1.0062793493270874 1.10679101943969727 0.0540747120976448059 -0.0343137085437774658 0.997491955757141113 -0.0301387272775173187 0.592051267623901367 0.120885953307151794 0.245266258716583252 0.33663293719291687 0.491186738014221191 0.416671454906463623 1
3.88678169250488281 -2.81985330581665039 -3.13123512268066406 -0.14812856912612915 -0.195725277066230774 0.968876838684082031 0.0320493429899215698 0.268800348043441772 0.100998394191265106 0.169260323047637939 0.768242299556732178 0.623650550842285156 0.720377027988433838 1
-1.03555810451507568 3.57252049446105957 0.186922028660774231 0.00804229732602834702 0.0126406401395797729 0.999886870384216309 0.0013138576177880168 0.490051865577697754 0.182849571108818054 0.0965158417820930481 0.566770851612091064 0.894654333591461182 0.873096942901611328 1
4.16953325271606445 2.29717135429382324 2.08068037033081055 -0.0339120067656040192 -0.026192082092165947 0.00268347910605370998 0.999077975749969482 0.0623212903738021851 0.275742560625076294 0.399235337972640991 0.492596834897994995 0.543988406658172607 0.504992485046386719 1
-0.0958804488182067871 1.84758901596069336 0.244269758462905884 0.0468080975115299225 0.0892675668001174927 0.00950475782155990601 0.994861781597137451 0.548218071460723877 0.190403148531913757 0.166809797286987305 0.129839420318603516 0.149715065956115723 0.465779483318328857 1
-0.104085840284824371 -0.836764752864837646 1.27735960483551025 -0.337747424840927124 0.127543389797210693 -0.0818732604384422302 0.92895430326461792 0.358716398477554321 0.241605818271636963 0.115927502512931824 0.177612707018852234 0.361203640699386597 0.726207196712493896 1
-4.44296789169311523 -2.50300121307373047 3.81153726577758789 0.0833492279052734375 0.0563848614692687988 0.992114841938018799 0.0747115164995193481 0.457257896661758423 0.227568581700325012 0.0908879563212394714 0.903473079204559326 0.543165981769561768 0.344908714294433594 1
-1.76183748245239258 0.0165406782180070877 2.38938188552856445 -0.201387360692024231 -0.300431519746780396 0.173987969756126404 0.915921509265899658 0.322842806577682495 0.135599017143249512 0.0605756975710391998 0.992488265037536621 0.175970017910003662 0.721357047557830811 1
-0.72791743278503418 2.64401125907897949 -4.45068073272705078 0.0373400449752807617 0.155765250325202942 0.139131292700767517 0.977233529090881348 0.525731146335601807 0.243231877684593201 0.0905067473649978638 0.212637916207313538 0.382471859455108643 0.219311296939849854 1
1.42635548114776611 -2.19376993179321289 1.8794705867767334 -0.0353227965533733368 -0.0735179856419563293 0.00686923833563923836 0.996644496917724609 0.541369855403900146 0.434435576200485229 0.209737256169319153 0.104394219815731049 0.68919074535369873 0.58505558967590332 1
-2.56105327606201172 2.26919865608215332 -2.0676116943359375 -0.203476846218109131 -0.303859174251556396 0.79888451099395752 0.477546125650405884 0.532241642475128174 0.323806226253509521 0.134723961353302002 0.336353272199630737 0.383482217788696289 0.598688244819641113 1
-3.36069822311401367 -0.0451694689691066742 -3.3578343391418457 0.111541695892810822 -0.0110556157305836678 0.991901993751525879 -0.0597215667366981506 0.0627353712916374207 0.396538019180297852 0.509636878967285156 0.837267279624938965 0.0587091222405433655 0.116952940821647644 1
4.57787847518920898 -2.92828869819641113 4.4395756721496582 0.0544395707547664642 0.0428982488811016083 -0.013776170089840889 0.997500002384185791 0.504131734371185303 0.249690979719161987 0.147673055529594421 0.633196651935577393 0.541957080364227295 0.872172355651855469 1
4.9725947380065918 -0.856374680995941162 2.92393851280212402 0.133293643593788147 -0.295676469802856445 -0.31319582462310791 0.892589807510375977 0.480570197105407715 0.198600649833679199 0.119158819317817688 0.563443660736083984 0.20830109715461731 0.886554479598999023 1
1.56072306632995605 -3.54840588569641113 2.05079364776611328 0.17432934045791626 -0.343827813863754272 -0.173878893256187439 0.9061775803565979 0.504672706127166748 0.216451942920684814 0.0773963779211044312 0.0547753944993019104 0.256759107112884521 0.04268655925989151 1
2.03959321975708008 4.99554204940795898 -4.15420293807983398 0.0943054929375648499 0.172607362270355225 0.0236967895179986954 0.980179369449615479 0.455101221799850464 0.187984421849250793 0.143864825367927551 0.381316840648651123 0.490029990673065186 0.894698917865753174 1
4.6521453857421875 2.90411114692687988 -2.19305777549743652 -0.00911513715982437134 -0.00127340189646929502 0.999952316284179688 0.00326415221206843853 0.215432927012443542 0.366870313882827759 0.484583646059036255 0.995656073093414307 0.835463881492614746 0.00730851199477910995 1
-2.13202118873596191 4.59735727310180664 -4.33843040466308594 0.170941293239593506 -0.0923767834901809692 0.946329951286315918 -0.258273482322692871 0.442897558212280273 0.28314661979675293 0.075651116669178009 0.382347375154495239 0.214943379163742065 0.506142318248748779 1
-2.39324784278869629 -4.05709552764892578 -3.57523632049560547 0.170208752155303955 -0.196896582841873169 0.935549736022949219 -0.238762304186820984 0.411930263042449951 0.199446365237236023 0.0299323275685310364 0.256241708993911743 0.87328636646270752 0.61932295560836792 1
2.33339214324951172 -0.529423713684082031 -0.596197962760925293 -0.119898267090320587 -0.0537048205733299255 0.0287691354751586914 0.990915000438690186 0.323302745819091797 0.134528100490570068 0.10312122106552124 0.660262703895568848 0.110661536455154419 0.252704203128814697 1
0.366032660007476807 3.89391994476318359 3.20783090591430664 0.218670457601547241 -0.130402222275733948 -0.115157388150691986 0.960165202617645264 0.333039999008178711 0.0996095165610313416 0.138174504041671753 0.860550880432128906 0.419404506683349609 0.937336564064025879 1
-0.281241685152053833 -0.00711409375071525574 2.36774277687072754 0.0309079587459564209 0.0263937972486019135 0.999034881591796875 -0.0166547000408172607 0.327229738235473633 0.118489079177379608 0.193853467702865601 0.470560193061828613 0.656236231327056885 0.840367972850799561 1
-1.6291651725769043 2.81334447860717773 -3.28208684921264648 0.862465560436248779 -0.365039587020874023 0.190555289387702942 -0.294258266687393188 0.226592287421226501 0.329361766576766968 0.302998185157775879 0.392803460359573364 0.747875452041625977 0.852161943912506104 1
1.83727359771728516 4.22284555435180664 -2.22016692161560059 -0.23090989887714386 -0.31813088059425354 0.29052385687828064 0.872392833232879639 0.478887259960174561 0.147253274917602539 0.0931412354111671448 0.346639662981033325 0.848352015018463135 0.306677073240280151 1
4.27300786972045898 -1.38105905055999756 2.26240968704223633 0.321810364723205566 0.385103315114974976 0.192028716206550598 0.843361437320709229 0.520482838153839111 0.0377702340483665466 0.106397330760955811 0.414645075798034668 0.171547085046768188 0.928514003753662109 1
-3.80741620063781738 2.37829732894897461 3.29196333885192871 0.0313428677618503571 0.170599773526191711 -0.0923162922263145447 0.980505526065826416 0.195474699139595032 0.475957304239273071 0.362149208784103394 0.620362699031829834 0.549821078777313232 0.520011425018310547 1
4.25423288345336914 1.53854691982269287 2.01112079620361328 -0.383353352546691895 -0.33007463812828064 0.837482452392578125 0.206673860549926758 0.215449333190917969 0.440897524356842041 0.389860451221466064 0.373574614524841309 0.934956669807434082 0.446638405323028564 1
-3.61941051483154297 4.23089599609375 4.15400075912475586 -0.159712180495262146 -0.0945762768387794495 0.942250847816467285 0.278766363859176636 0.539460897445678711 0.325505763292312622 0.196721956133842468 0.42949986457824707 0.442732095718383789 0.907269060611724854 1
-4.12514925003051758 2.38329553604125977 2.58993196487426758 -0.0691775009036064148 -0.0102316131815314293 0.996958315372467041 0.0344077795743942261 0.150166034698486328 0.275248467922210693 0.436348944902420044 0.524691283702850342 0.0600468926131725311 0.908488929271697998 1
-2.42198324203491211 3.12321615219116211 3.12692475318908691 0.0164072271436452866 -0.0282313153147697449 0.999463677406311035 -0.00248544127680361271 0.383106082677841187 0.201884478330612183 0.137526288628578186 0.53143841028213501 0.730096042156219482 0.40909239649772644 1
0.0465633273124694824 -2.84526157379150391 -1.67377960681915283 -0.0175003279000520706 0.00608626101166009903 -0.00275999424047768116 0.99982452392578125 0.278386443853378296 0.157287344336509705 0.0659623369574546814 0.770466983318328857 0.672919094562530518 0.467562973499298096 1
-1.72436130046844482 -4.01234006881713867 3.18425869941711426 0.0418250896036624908 0.00457396777346730232 0.998977720737457275 -0.0165315456688404083 0.111479230225086212 0.277837038040161133 0.326860010623931885 0.372714638710021973 0.0943761542439460754 0.263000756502151489 1
-1.95731139183044434 -2.57349371910095215 -1.74899673461914062 -0.156148418784141541 -0.32101893424987793 0.120693743228912354 0.926281571388244629 0.667213499546051025 0.325571388006210327 0.255863785743713379 0.296901822090148926 0.901091933250427246 0.888018488883972168 1
-3.26935863494873047 4.5820469856262207 -1.88722324371337891 0.381855607032775879 0.410029470920562744 0.425214141607284546 0.710812985897064209 0.341334253549575806 0.110172465443611145 0.131678074598312378 0.0509933792054653168 0.452943861484527588 0.180742785334587097 1
3.7729957103729248 2.04071545600891113 1.06768655776977539 0.197892561554908752 0.344157487154006958 0.333956927061080933 0.854907572269439697 0.519038736820220947 0.443248987197875977 0.152761712670326233 0.220089927315711975 0.0739976167678833008 0.258590906858444214 1
-1.63202822208404541 0.171949148178100586 1.66220557689666748 -0.173178732395172119 -0.0364560782909393311 0.963616788387298584 0.200306668877601624 0.115759335458278656 0.233921542763710022 0.482948422431945801 0.702932000160217285 0.345014661550521851 0.690672993659973145 1
-3.32796478271484375 1.92807471752166748 3.05543684959411621 0.144464567303657532 -0.0822362080216407776 -0.0666163638234138489 0.98383408784866333 0.550878763198852539 0.287670910358428955 0.328403770923614502 0.871259450912475586 0.0560324378311634064 0.256417989730834961 1
4.98572921752929688 4.94273233413696289 -4.8925633430480957 -0.0263695288449525833 -0.0862921103835105896 0.0146394725888967514 0.995813250541687012 0.385403901338577271 0.291595339775085449 0.19817042350769043 0.289087414741516113 0.132059112191200256 0.731559514999389648 1
-3.78314995765686035 1.07868599891662598 -2.50133991241455078 0.0482223667204380035 0.243803322315216064 0.0754202902317047119 0.965684354305267334 0.330971807241439819 0.125419721007347107 0.0928230881690979004 0.652632236480712891 0.897150754928588867 0.324120998382568359 1
3.88630270957946777 -3.60313677787780762 2.82944488525390625 0.0838855206966400146 -0.259289383888244629 -0.0602279193699359894 0.960262894630432129 0.406928956508636475 0.191390827298164368 0.145167768001556396 0.236832022666931152 0.78329932689666748 0.407418549060821533 1
1.61045348644256592 3.52245926856994629 -2.35262322425842285 0.314213782548904419 0.253817975521087646 -0.101968131959438324 0.909092187881469727 0.49306294322013855 0.0693629086017608643 0.184260234236717224 0.0275606215000152588 0.267349600791931152 0.702908694744110107 1
3.52677464485168457 0.803958535194396973 2.38872766494750977 -0.10307331383228302 0.00806538481265306473 0.991964161396026611 -0.072924003005027771 0.11631195992231369 0.249953180551528931 0.320667862892150879 0.918554306030273438 0.108449093997478485 0.265448957681655884 1
-4.90326070785522461 -0.560660362243652344 1.59280967712402344 0.188092201948165894 0.140980780124664307 0.915889382362365723 0.325411051511764526 0.235676184296607971 0.177534103393554688 0.0594429895281791687 0.567718148231506348 0.0788508430123329163 0.353292793035507202 1
0.340673744678497314 4.23248004913330078 4.09205102920532227 0.153221383690834045 0.959430158138275146 0.16857561469078064 0.166130125522613525 0.471545398235321045 0.150650918483734131 0.31592443585395813 0.69993901252746582 0.705674290657043457 0.0768931880593299866 1
-1.96806573867797852 2.88535261154174805 -1.72571480274200439 -0.320719122886657715 -0.127394899725914001 0.935718715190887451 0.0730770081281661987 0.0763211995363235474 0.308108776807785034 0.374666005373001099 0.179379656910896301 0.723503768444061279 0.482347488403320312 1
1.49581003189086914 2.10077381134033203 -4.4983677864074707 0.111794374883174896 -0.351565003395080566 -0.206331118941307068 0.906273424625396729 0.484230786561965942 0.192555546760559082 0.0812319889664649963 0.812658071517944336 0.11775033175945282 0.711137890815734863 1
2.98084282875061035 -0.903565943241119385 4.44984817504882812 0.129412099719047546 0.118929602205753326 -0.0263356566429138184 0.984080612659454346 0.416810184717178345 0.16060340404510498 0.0946937873959541321 0.517345607280731201 0.11781611293554306 0.50545954704284668 1
