ply
format ascii 1.0
element splat 100
property float x
property float y
property float z
property float r_0
property float r_1
property float r_2
property float r_3
property float s_0
property float s_1
property float s_2
property float r
property float g
property float b
property float a
end_header
2.74225521087646484 1.71827912330627441 3.82886266708374023 0.277441233396530151 0.362440526485443115 0.174288645386695862 0.87251746654510498 0.620545148849487305 0.160353124141693115 0.261691004037857056 0.0313952378928661346 0.450002133846282959 0.743977487087249756 1
0.591971099376678467 0.61785513162612915 1.4950481653213501 -0.0251734089106321335 -0.0641248822212219238 0.997615218162536621 0.00426466017961502075 0.595824241638183594 0.190508261322975159 0.0827523916959762573 0.292690545320510864 0.744078099727630615 0.513846099376678467 1
3.89314866065979004 0.0214770827442407608 1.53707611560821533 0.0172499865293502808 -0.149098888039588928 -0.0220551472157239914 0.988425791263580322 0.348763734102249146 0.236651420593261719 0.0995393916964530945 0.589316189289093018 0.923703372478485107 0.60919266939163208 1
4.73419332504272461 -0.00792679004371166229 -3.73716902732849121 0.000427467748522758484 -0.00476558273658156395 0.00310241966508328915 0.999983727931976318 0.449067562818527222 0.0909730046987533569 0.170825555920600891 0.832543671131134033 0.53494572639465332 0.639261543750762939 1
-0.448708117008209229 -2.18088722229003906 -3.65263032913208008 -0.0733375251293182373 -0.012381337583065033 0.995412349700927734 -0.0601878799498081207 0.259620755910873413 0.327209681272506714 0.290866613388061523 0.566560924053192139 0.25499725341796875 0.480923235416412354 1
3.53806972503662109 -0.0944596901535987854 -0.365090936422348022 -0.242017984390258789 -0.315226495265960693 0.147594079375267029 0.905690610408782959 0.439821302890777588 0.159825503826141357 0.269820302724838257 0.767155826091766357 0.743558049201965332 0.313927739858627319 1
-4.40136289596557617 3.64491915702819824 -0.895023941993713379 0.118584863841533661 0.213895156979560852 0.965380728244781494 0.0907005369663238525 0.0900771543383598328 0.412809371948242188 0.326654940843582153 0.902646660804748535 0.451961278915405273 0.305391967296600342 1
-2.03757524490356445 -3.27010726928710938 0.133055835962295532 -0.336599558591842651 0.127071291208267212 0.929612100124359131 -0.0798432230949401855 0.11822645366191864 0.343108534812927246 0.480625718832015991 0.875026166439056396 0.133406102657318115 0.331305831670761108 1
-2.97067689895629883 4.77622079849243164 -0.530020236968994141 0.238999336957931519 -0.324808239936828613 -0.254796475172042847 0.878895699977874756 0.337447196245193481 0.116813242435455322 0.0604074373841285706 0.668206751346588135 0.886495888233184814 0.228720054030418396 1
-4.67813968658447266 -2.10522747039794922 -0.822079360485076904 -0.228671655058860779 -0.421133279800415039 0.374616950750350952 0.793736875057220459 0.300072342157363892 0.239018410444259644 0.0969077497720718384 0.0588634684681892395 0.796213448047637939 0.770349264144897461 1
0.508119404315948486 2.68261122703552246 -0.390346765518188477 0.945429205894470215 0.286554634571075439 0.144466891884803772 0.0563860274851322174 0.419357031583786011 0.225830689072608948 0.0996873229742050171 0.991321206092834473 0.307103723287582397 0.366781622171401978 1
-1.61692976951599121 -2.9053957462310791 -4.72299718856811523 0.793217480182647705 0.215377181768417358 -0.323701441287994385 -0.468653500080108643 0.0995669066905975342 0.277118891477584839 0.403874516487121582 0.587125062942504883 0.256719738245010376 0.70378422737121582 1
2.80846023559570312 0.718944668769836426 3.00800585746765137 -0.07440166175365448 0.0448015369474887848 0.994299530982971191 -0.0618520490825176239 0.217196032404899597 0.0190702956169843674 0.0289504416286945343 0.397005677223205566 0.734243392944335938 0.897040367126464844 1
-0.882306337356567383 -3.01111340522766113 -2.04571938514709473 -0.322411805391311646 -0.170516997575759888 0.926186442375183105 -0.0956726670265197754 0.5032157301902771 0.208550184965133667 0.0781368240714073181 0.746242165565490723 0.451845288276672363 0.129475980997085571 1
-0.2861461341381073 4.58614921569824219 0.338649272918701172 0.317383348941802979 0.881804525852203369 0.118393145501613617 0.328133523464202881 0.145385682582855225 0.310441970825195312 0.497717201709747314 0.556002318859100342 0.148139461874961853 0.978156864643096924 1
-0.0741166025400161743 3.67636871337890625 -0.0279322229325771332 -0.362332761287689209 -0.115605473518371582 0.130551055073738098 0.915590941905975342 0.350047081708908081 0.251809656620025635 0.143350526690483093 0.503393709659576416 0.156309723854064941 0.757457852363586426 1
0.562462806701660156 -2.96353697776794434 -3.87565922737121582 -0.311293154954910278 -0.1250343918800354 0.142262920737266541 0.931248724460601807 0.443133562803268433 0.143319159746170044 0.253411173820495605 0.259656786918640137 0.0219778697937726974 0.644645154476165771 1
1.23752880096435547 -0.454320609569549561 4.66845464706420898 -0.0405969247221946716 0.027838539332151413 0.998751223087310791 -0.00853817164897918701 0.288426101207733154 0.468690812587738037 0.404804825782775879 0.0948544889688491821 0.0680804625153541565 0.726961612701416016 1
1.86452329158782959 0.525445282459259033 4.94242429733276367 -0.24724191427230835 0.314825445413589478 0.805221796035766602 -0.43746340274810791 0.305417835712432861 0.221763789653778076 0.15157221257686615 0.668335020542144775 0.431249707937240601 0.905092060565948486 1
4.54504060745239258 -4.02538537979125977 -0.639962494373321533 -0.00282952282577753067 -0.0294475629925727844 -0.0279947072267532349 0.999170243740081787 0.39837232232093811 0.126275703310966492 0.286565124988555908 0.382731467485427856 0.276641547679901123 0.41211622953414917 1
4.30983638763427734 2.33384895324707031 3.42951488494873047 -0.14833579957485199 0.10530514270067215 0.0491054914891719818 0.982087552547454834 0.458810389041900635 0.136631742119789124 0.306347519159317017 0.743071973323822021 0.882409334182739258 0.607010781764984131 1
0.998179435729980469 -3.56272029876708984 -1.73486745357513428 0.0815137699246406555 -0.00532136298716068268 0.996591866016387939 -0.0114827891811728477 0.135919138789176941 0.42517659068107605 0.303013920783996582 0.404924631118774414 0.902414441108703613 0.651994049549102783 1
-3.13276910781860352 -2.30515813827514648 3.64928722381591797 0.15403631329536438 -0.323634088039398193 -0.273436158895492554 0.892617762088775635 0.612783253192901611 0.353822320699691772 0.0592202506959438324 0.741401612758636475 0.54522395133972168 0.842277228832244873 1
2.61382126808166504 1.35833358764648438 -4.59186458587646484 -0.202101737260818481 -0.34863850474357605 0.409284353256225586 0.818591713905334473 0.512644052505493164 0.425737202167510986 0.156073972582817078 0.69255673885345459 0.913827955722808838 0.177529186010360718 1
-0.517315387725830078 4.62485742568969727 -4.28482866287231445 -0.186080217361450195 -0.186042264103889465 0.962079107761383057 -0.0718761682510375977 0.493956804275512695 0.199435412883758545 0.134819045662879944 0.410926669836044312 0.419797003269195557 0.843980371952056885 1
-0.675325214862823486 4.87851905822753906 3.10164403915405273 -0.187619701027870178 0.329535931348800659 -0.380661696195602417 0.843387007713317871 0.404544681310653687 0.329027116298675537 0.140600934624671936 0.398482531309127808 0.256741434335708618 0.439629107713699341 1
1.89568555355072021 -2.15228748321533203 -4.32891178131103516 0.0221624933183193207 0.0263993125408887863 -0.00283798901364207268 0.999401748180389404 0.494369179010391235 0.379070788621902466 0.210312724113464355 0.51292794942855835 0.994096159934997559 0.592397689819335938 1
-4.57543516159057617 1.26926875114440918 -0.513128757476806641 0.00377791328355669975 0.0401011817157268524 0.0439463704824447632 0.99822157621383667 0.439853101968765259 0.337839424610137939 0.22358781099319458 0.11249995231628418 0.33513912558555603 0.319850802421569824 1
-3.31326413154602051 0.0454464852809906006 0.463139146566390991 -0.345121324062347412 -0.367413818836212158 0.329068660736083984 0.798506200313568115 0.392691463232040405 0.113758593797683716 0.165494218468666077 0.462552279233932495 0.661480903625488281 0.484061658382415771 1
0.441789895296096802 -2.17364311218261719 -1.90003812313079834 0.08653230220079422 0.0590047016739845276 -0.0285306461155414581 0.994090855121612549 0.467933475971221924 0.256699949502944946 0.0866240113973617554 0.766338646411895752 0.852245032787322998 0.511087656021118164 1
0.622728824615478516 3.50162553787231445 -2.64375925064086914 -0.000597700069192796946 -4.69752412755042315e-05 0.999999761581420898 0.000374505354557186365 0.0995755642652511597 0.408577710390090942 0.460979670286178589 0.178481608629226685 0.178263649344444275 0.687907934188842773 1
3.28725051879882812 -3.66271400451660156 -3.3341670036315918 0.0508357211947441101 0.0286152847111225128 0.998117327690124512 0.018939092755317688 0.592212677001953125 0.18643149733543396 0.373446226119995117 0.46289139986038208 0.977739810943603516 0.410760879516601562 1
1.19123709201812744 -1.54586279392242432 4.44058990478515625 0.0683441981673240662 -0.0884070023894309998 -0.0241595674306154251 0.993443310260772705 0.522548019886016846 0.0762478411197662354 0.195823505520820618 0.661816179752349854 0.289248287677764893 0.933987200260162354 1
-3.84917402267456055 -0.95399022102355957 1.78105449676513672 0.0492414161562919617 -0.153055325150489807 0.986506044864654541 0.0309060625731945038 0.332403302192687988 0.435560464859008789 0.497939944267272949 0.880962073802947998 0.225132644176483154 0.280617713928222656 1
-1.01188528537750244 -0.320507645606994629 2.59364056587219238 0.466152101755142212 0.186089485883712769 0.262813478708267212 0.824015796184539795 0.516778886318206787 0.229483097791671753 0.130371883511543274 0.870460093021392822 0.577957749366760254 0.228917554020881653 1
-1.66942083835601807 -3.96486139297485352 -4.96368741989135742 0.35678476095199585 -0.332975178956985474 0.801750719547271729 -0.345004290342330933 0.0713123306632041931 0.296399861574172974 0.382314413785934448 0.826703667640686035 0.257609933614730835 0.91409611701965332 1
2.95268774032592773 1.74438118934631348 -0.963671207427978516 -0.430589944124221802 0.425254017114639282 -0.410868436098098755 0.681863963603973389 0.459021240472793579 0.198582783341407776 0.243855908513069153 0.854225337505340576 0.787826240062713623 0.153029948472976685 1
4.46961355209350586 0.159578874707221985 1.83159244060516357 -0.134939521551132202 0.290265738964080811 -0.277198165655136108 0.905924022197723389 0.550506532192230225 0.417065918445587158 0.207407176494598389 0.942743241786956787 0.706044137477874756 0.101203635334968567 1
-3.21523308753967285 -3.87730598449707031 3.18183612823486328 -0.419970273971557617 0.230949878692626953 -0.226964265108108521 0.847805619239807129 0.484785974025726318 0.22845064103603363 0.306073755025863647 0.317044615745544434 0.385359644889831543 0.537861168384552002 1
3.52790045738220215 4.98606491088867188 -3.79373669624328613 0.131319642066955566 -0.0141590330749750137 0.990991592407226562 -0.022143825888633728 0.166487932205200195 0.333887249231338501 0.436957418918609619 0.915153264999389648 0.0860520154237747192 0.219159692525863647 1
3.09789323806762695 -3.66596341133117676 1.96663427352905273 0.0615117289125919342 -0.143398255109786987 -0.0164383351802825928 0.987614810466766357 0.597512543201446533 0.349969327449798584 0.0992507860064506531 0.189990445971488953 0.104835070669651031 0.0491064861416816711 1
-2.81919598579406738 0.668931543827056885 -0.571873664855957031 0.0982048958539962769 0.0660867840051651001 0.9866066575050354 0.112230442464351654 0.52174842357635498 0.238178208470344543 0.152275308966636658 0.224214062094688416 0.335763275623321533 0.847610771656036377 1
2.61839962005615234 -0.503534972667694092 0.0127295926213264465 -0.0131564419716596603 0.00150654197204858065 0.999885618686676025 -0.00730281835421919823 0.153571963310241699 0.525704026222229004 0.362934589385986328 0.0896546021103858948 0.35172116756439209 0.0334971211850643158 1
2.19784712791442871 2.18975925445556641 -2.49684405326843262 -0.0527579151093959808 0.0176827143877744675 0.0164421238005161285 0.998315393924713135 0.309349864721298218 0.137581601738929749 0.14534701406955719 0.521177470684051514 0.487058192491531372 0.742004513740539551 1
-1.98547375202178955 -0.703369498252868652 1.66362667083740234 -0.152668684720993042 0.0323914028704166412 0.981479942798614502 -0.111086256802082062 0.0951146632432937622 0.306794047355651855 0.467573404312133789 0.606817305088043213 0.527649819850921631 0.712967455387115479 1
0.940256595611572266 -4.71661901473999023 2.18412065505981445 -0.338708490133285522 0.267402797937393188 0.790433764457702637 -0.434726059436798096 0.107972748577594757 0.25607985258102417 0.356745004653930664 0.56414031982421875 0.0606750324368476868 0.748593032360076904 1
4.7704167366027832 -4.17604923248291016 0.350423365831375122 0.00648747710511088371 0.00187343487050384283 0.999924659729003906 -0.010251765139400959 0.455065906047821045 0.130308806896209717 0.347193270921707153 0.688501834869384766 0.10637037456035614 0.25248381495475769 1
-1.09677660465240479 3.92936563491821289 -3.95135974884033203 -0.306043773889541626 0.405048191547393799 -0.240452662110328674 0.827318370342254639 0.552766025066375732 0.101584643125534058 0.200667291879653931 0.626497387886047363 0.427794992923736572 0.43904915452003479 1
4.90818357467651367 -0.930170357227325439 -1.56905937194824219 0.147232294082641602 -0.297679126262664795 -0.111899547278881073 0.936583280563354492 0.382162094116210938 0.237550124526023865 0.130600035190582275 0.823561191558837891 0.213242322206497192 0.126727849245071411 1
3.15827727317810059 2.854766845703125 -3.1471104621887207 0.263579636812210083 0.383518427610397339 0.346084922552108765 0.81465613842010498 0.517364203929901123 0.393199533224105835 0.128650262951850891 0.602494418621063232 0.838826894760131836 0.514467597007751465 1
3.19666409492492676 0.55372542142868042 -2.99499392509460449 -0.202331334352493286 0.370727181434631348 -0.290355831384658813 0.858671605587005615 0.483889877796173096 0.0822731107473373413 0.0391543321311473846 0.992122650146484375 0.0154170282185077667 0.50373464822769165 1
-4.64472341537475586 -2.0332789421081543 1.38076472282409668 0.0228471793234348297 -0.0892984792590141296 0.00592986308038234711 0.995725154876708984 0.396413475275039673 0.3211955726146698 0.162561789155006409 0.948858737945556641 0.762405335903167725 0.996918797492980957 1
4.7473597526550293 1.45806038379669189 -1.31197595596313477 -0.0185860265046358109 0.0586938150227069855 0.998076498508453369 -0.00727394223213195801 0.265822798013687134 0.19832099974155426 0.0923616364598274231 0.598759710788726807 0.267516642808914185 0.835653066635131836 1
-3.97312712669372559 -4.81643486022949219 1.38615930080413818 -0.286169707775115967 -0.285631805658340454 0.839252233505249023 0.363561630249023438 0.4934958815574646 0.251776814460754395 0.102011740207672119 0.932283639907836914 0.138043969869613647 0.867280721664428711 1
-2.13734269142150879 -4.73910188674926758 -1.45228469371795654 0.0113907326012849808 0.0103513672947883606 0.999850273132324219 -0.00790634751319885254 0.475706696510314941 0.0900404676795005798 0.221802249550819397 0.783108651638031006 0.979541301727294922 0.906139552593231201 1
4.34614801406860352 -1.80927705764770508 -0.0669915378093719482 -0.189742118120193481 -0.0259044189006090164 0.980820775032043457 0.0362968891859054565 0.110212415456771851 0.159478873014450073 0.186807960271835327 0.318602025508880615 0.0795398131012916565 0.552064359188079834 1
-2.64182019233703613 2.99750947952270508 -3.61995601654052734 0.977717936038970947 -0.191580921411514282 0.0807116031646728516 -0.0291560161858797073 0.394832015037536621 0.0409973934292793274 0.22786104679107666 0.95840144157409668 0.707288086414337158 0.016508106142282486 1
4.69465065002441406 -4.88276433944702148 0.121090322732925415 -0.00765240378677845001 -0.0597329102456569672 0.0496106036007404327 0.996951460838317871 0.367790430784225464 0.169668242335319519 0.0960861742496490479 0.153210923075675964 0.963510572910308838 0.688644826412200928 1
4.98481273651123047 0.113975338637828827 4.23665475845336914 -0.149068564176559448 0.0414855740964412689 0.987823665142059326 -0.016185414046049118 0.199020907282829285 0.29794079065322876 0.426840782165527344 0.749241769313812256 0.390473693609237671 0.528707623481750488 1
-3.31128478050231934 -2.96038436889648438 -0.203260228037834167 -0.00733296619728207588 -0.10915336012840271 0.0175073966383934021 0.993843674659729004 0.486700654029846191 0.150138869881629944 0.105089761316776276 0.565850615501403809 0.228253662586212158 0.992389976978302002 1
-4.16164445877075195 -2.12955999374389648 -4.8049163818359375 0.219592884182929993 -0.154900535941123962 -0.264123380184173584 0.926295638084411621 0.145066648721694946 0.406727612018585205 0.389288753271102905 0.0575364455580711365 0.863634109497070312 0.168899595737457275 1
-3.66520237922668457 -1.90710079669952393 2.9168248176574707 -0.37843012809753418 -0.206905275583267212 0.856830418109893799 0.28252863883972168 0.12270500510931015 0.297381013631820679 0.514960408210754395 0.885031044483184814 0.408219635486602783 0.630318760871887207 1
-3.95115089416503906 -1.77705252170562744 -1.44616043567657471 0.120136968791484833 0.108030535280704498 0.985371053218841553 -0.0542250983417034149 0.339284688234329224 0.0966321453452110291 0.128053560853004456 0.486509859561920166 0.316554486751556396 0.630680620670318604 1
4.42763519287109375 -4.47640895843505859 1.32520496845245361 0.0647223219275474548 -0.0183100886642932892 0.993806600570678711 -0.0884542912244796753 0.499823182821273804 0.252609223127365112 0.0823409333825111389 0.782162308692932129 0.710331261157989502 0.703514933586120605 1
-0.180813893675804138 -0.396682679653167725 -2.7548375129699707 -0.210134267807006836 0.456827759742736816 -0.206889316439628601 0.839254915714263916 0.535952568054199219 0.180911481380462646 0.241242557764053345 0.935845434665679932 0.707236707210540771 0.438215464353561401 1
3.43297243118286133 -4.10603141784667969 1.03666949272155762 0.0061292136088013649 -0.0568768307566642761 -0.0499231182038784027 0.997113406658172607 0.471830368041992188 0.263434320688247681 0.1575736403465271 0.170864790678024292 0.117724508047103882 0.862846791744232178 1
4.12548971176147461 4.48725223541259766 -3.74305415153503418 -0.0566171370446681976 0.151582896709442139 -0.0508811809122562408 0.985509097576141357 0.55111461877822876 0.282989561557769775 0.200265586376190186 0.0310455728322267532 0.923581779003143311 0.689077794551849365 1
-0.103288881480693817 1.770119309425354 -1.36797976493835449 0.495307564735412598 -0.343733757734298706 -0.407913118600845337 0.685656189918518066 0.179855853319168091 0.113615900278091431 0.12600533664226532 0.812120139598846436 0.800425946712493896 0.193437770009040833 1
-4.31879043579101562 -0.303897053003311157 3.30290937423706055 -0.00585532840341329575 -0.00691009266301989555 0.999958932399749756 -0.000384215789381414652 0.361124783754348755 0.305789470672607422 0.214820906519889832 0.28814244270324707 0.403400212526321411 0.974402785301208496 1
1.10758042335510254 4.99417972564697266 3.29010581970214844 0.151053458452224731 -0.0835477784276008606 0.957562625408172607 -0.230816781520843506 0.500941693782806396 0.315741002559661865 0.0326811820268630981 0.599677324295043945 0.914105832576751709 0.798226714134216309 1
-2.02355742454528809 4.52417182922363281 4.26635313034057617 -0.139550477266311646 0.100633569061756134 0.0341860838234424591 0.98449474573135376 0.482680350542068481 0.100856088101863861 0.317188560962677002 0.599403679370880127 0.959630966186523438 0.39115220308303833 1
2.23940706253051758 3.42969346046447754 -4.39119672775268555 0.462468892335891724 0.853056252002716064 0.173297956585884094 0.16847953200340271 0.623922646045684814 0.28721773624420166 0.142670139670372009 0.841881334781646729 0.531439125537872314 0.0135625014081597328 1
2.38719868659973145 -3.89945387840270996 -3.24064302444458008 0.190863743424415588 0.124445810914039612 0.967844188213348389 -0.10659201443195343 0.405308574438095093 0.18560732901096344 0.0804915353655815125 0.940014243125915527 0.69755023717880249 0.41151544451713562 1
-0.426022827625274658 -0.0971207320690155029 2.50459003448486328 -0.218994021415710449 0.054437052458524704 -0.0330493710935115814 0.973645687103271484 0.511224746704101562 0.153129860758781433 0.0739366412162780762 0.206116214394569397 0.58568274974822998 0.207045316696166992 1
4.00214576721191406 2.71761703491210938 -0.0555428117513656616 -0.0972342342138290405 -0.0175808649510145187 0.982693970203399658 0.156680956482887268 0.150452688336372375 0.251304566860198975 0.334047108888626099 0.975064337253570557 0.228563904762268066 0.64219588041305542 1
-4.18638372421264648 -0.0838333889842033386 -3.64312100410461426 0.116633214056491852 0.0722397342324256897 0.99048691987991333 -0.010667135939002037 0.260975658893585205 0.0286982916295528412 0.165426865220069885 0.802082419395446777 0.799700021743774414 0.564298689365386963 1
-1.09171187877655029 -1.35233449935913086 4.41510725021362305 0.136071205139160156 -0.092718563973903656 0.982166826725006104 0.0907539352774620056 0.450198143720626831 0.246117845177650452 0.18041248619556427 0.0732751563191413879 0.821433544158935547 0.98405832052230835 1
3.87086868286132812 3.7883455753326416 3.09624695777893066 0.323431313037872314 -0.393157392740249634 -0.185869812965393066 0.840399801731109619 0.533125579357147217 0.100705049932003021 0.191179916262626648 0.350794464349746704 0.433548152446746826 0.668900787830352783 1
-2.81771636009216309 2.82932305335998535 -1.14859223365783691 0.0598668120801448822 -0.0457566753029823303 0.996199548244476318 0.0436892472207546234 0.457613497972488403 0.252146244049072266 0.0578593127429485321 0.891648709774017334 0.552532851696014404 0.353825002908706665 1
-2.63702535629272461 -1.09258019924163818 4.89777612686157227 -0.0034241571556776762 -0.0110722286626696587 0.999932765960693359 0.000343458785209804773 0.54105842113494873 0.392342686653137207 0.10471036285161972 0.75402146577835083 0.420810490846633911 0.555741965770721436 1
-2.41347336769104004 1.24603390693664551 -4.60053730010986328 -0.0918676406145095825 0.138207525014877319 -0.0458082221448421478 0.985068857669830322 0.541791379451751709 0.209556519985198975 0.362867206335067749 0.281347990036010742 0.625337123870849609 0.00953553244471549988 1
-1.59139013290405273 -2.07864880561828613 4.37277603149414062 -0.139232292771339417 -0.314547717571258545 0.0676603615283966064 0.936534106731414795 0.457883119583129883 0.169388681650161743 0.222061455249786377 0.117853671312332153 0.0107176452875137329 0.322190284729003906 1
-4.93886280059814453 -2.81548905372619629 -1.88141882419586182 0.0899511650204658508 -0.132046431303024292 -0.0593034885823726654 0.985370814800262451 0.34723547101020813 0.195713341236114502 0.0561180561780929565 0.903766632080078125 0.0753577128052711487 0.990131914615631104 1
2.0041511058807373 -0.29482114315032959 -3.66167020797729492 -0.351259201765060425 -0.389154881238937378 0.349624216556549072 0.776491045951843262 0.405237108469009399 0.234028935432434082 0.295853793621063232 0.813529610633850098 0.739142417907714844 0.2670859694480896 1
-1.48923909664154053 1.30331730842590332 4.12360095977783203 -0.405604541301727295 -0.514956474304199219 0.652850866317749023 0.379592567682266235 0.432418286800384521 0.11380361020565033 0.215073764324188232 0.411357611417770386 0.100978106260299683 0.0589478127658367157 1
3.54347801208496094 -3.32855534553527832 -2.3405916690826416 0.353367835283279419 -0.480403631925582886 0.749103665351867676 -0.288421839475631714 0.462076365947723389 0.0818564668297767639 0.16850532591342926 0.740646302700042725 0.996973156929016113 0.898509502410888672 1
-2.08899044990539551 -3.10206031799316406 -3.23494935035705566 -0.116074785590171814 -0.0496289394795894623 0.0410468913614749908 0.991150200366973877 0.504594564437866211 0.198097869753837585 0.370016783475875854 0.749252378940582275 0.776615142822265625 0.0544608421623706818 1
-1.93819904327392578 -2.71401739120483398 -0.328775912523269653 0.346921920776367188 0.351157158613204956 0.688476920127868652 0.531350493431091309 0.375218600034713745 0.259521842002868652 0.0541481673717498779 0.0846087411046028137 0.981430947780609131 0.899328291416168213 1
0.795409560203552246 -1.81857848167419434 -1.50014877319335938 0.241263002157211304 -0.294879734516143799 -0.0826264545321464539 0.920875132083892822 0.47457459568977356 0.334251493215560913 0.147600471973419189 0.500877678394317627 0.545227348804473877 0.352594763040542603 1
-4.87088203430175781 4.73692226409912109 -1.88366556167602539 -0.0447439327836036682 -0.123877227306365967 0.115248039364814758 0.984566032886505127 0.461366623640060425 0.359127342700958252 0.268751382827758789 0.865449488162994385 0.265432238578796387 0.143789827823638916 1
-0.776654422283172607 0.831185877323150635 0.533156037330627441 -0.0553825907409191132 -0.186947435140609741 0.122779376804828644 0.973092317581176758 0.555401623249053955 0.234917610883712769 0.130457714200019836 0.0752876847982406616 0.593481600284576416 0.753498375415802002 1
0.0128722991794347763 1.3657081127166748 -3.89583277702331543 -0.272564977407455444 0.957494795322418213 -0.0637749284505844116 0.0696044564247131348 0.461112141609191895 0.278814107179641724 0.181904956698417664 0.825298726558685303 0.913794219493865967 0.177293658256530762 1
-0.855767786502838135 3.2269282341003418 3.43244361877441406 0.0209834761917591095 0.0825067311525344849 0.0319498367607593536 0.995857179164886475 0.434551805257797241 0.160789132118225098 0.33242151141166687 0.681268393993377686 0.8531646728515625 0.540058016777038574 1
2.70320820808410645 1.01830136775970459 -0.730187296867370605 0.781272411346435547 -0.512549161911010742 0.233687654137611389 -0.268880724906921387 0.225851342082023621 0.556333541870117188 0.47561722993850708 0.735160648822784424 0.654877901077270508 0.283254802227020264 1
1.39216995239257812 1.93756890296936035 -4.54430055618286133 -0.00541003979742527008 -0.0364379361271858215 -0.014459541067481041 0.999216675758361816 0.294568657875061035 0.136154726147651672 0.226559370756149292 0.0265343878418207169 0.0797554850578308105 0.641765832901000977 1
-1.6335301399230957 -3.33020806312561035 3.60199761390686035 -0.290825515985488892 0.185639277100563049 -0.152615919709205627 0.926103115081787109 0.472200691699981689 0.0642897412180900574 0.17581920325756073 0.375082314014434814 0.970529735088348389 0.444180846214294434 1
3.18686699867248535 0.695852279663085938 -1.98593413829803467 -0.191919639706611633 0.122184649109840393 0.958599328994750977 -0.171245574951171875 0.324074268341064453 0.0604261457920074463 0.140717655420303345 0.139166340231895447 0.138700142502784729 0.904901444911956787 1
1.14008021354675293 -4.22610664367675781 4.09414863586425781 0.338416546583175659 -0.47880244255065918 -0.433982819318771362 0.684018552303314209 0.442400902509689331 0.230563431978225708 0.112924531102180481 0.690023660659790039 0.321601152420043945 0.30462232232093811 1
-4.09470462799072266 -4.87342453002929688 -4.27284049987792969 0.198532238602638245 0.950004518032073975 0.199497684836387634 0.135192498564720154 0.457379519939422607 0.0182768292725086212 0.208836331963539124 0.324467450380325317 0.459110409021377563 0.474794238805770874 1
2.65590333938598633 1.42287218570709229 -3.99224853515625 -0.400453805923461914 0.429293334484100342 -0.359482556581497192 0.725338757038116455 0.487044066190719604 0.329382508993148804 0.117656148970127106 0.0700667798519134521 0.0369151681661605835 0.952245831489562988 1
